HIERARCHY
ROOT root
{
	OFFSET 0.000000 0.000000 0.000000
	CHANNELS 6 Xposition Yposition Zposition Zrotation Yrotation Xrotation
	JOINT lhip
	{
		OFFSET 0.058581 -0.082280 -0.017664
		CHANNELS 3 Zrotation Yrotation Xrotation
		JOINT lknee
		{
			OFFSET 0.043451 -0.386469 0.008037
			CHANNELS 3 Zrotation Yrotation Xrotation
			JOINT lankle
			{
				OFFSET -0.014790 -0.426874 -0.037428
				CHANNELS 3 Zrotation Yrotation Xrotation
				JOINT ltoe
				{
					OFFSET 0.041054 -0.060286 0.122042
					CHANNELS 3 Zrotation Yrotation Xrotation
					End Site
					{
						OFFSET 0.000000 0.000000 0.000000
					}
				}
			}
		}
	}
	JOINT rhip
	{
		OFFSET -0.060310 -0.090513 -0.013543
		CHANNELS 3 Zrotation Yrotation Xrotation
		JOINT rknee
		{
			OFFSET -0.043257 -0.383688 -0.004843
			CHANNELS 3 Zrotation Yrotation Xrotation
			JOINT rankle
			{
				OFFSET 0.019056 -0.420046 -0.034562
				CHANNELS 3 Zrotation Yrotation Xrotation
				JOINT rtoe
				{
					OFFSET -0.034840 -0.062106 0.130323
					CHANNELS 3 Zrotation Yrotation Xrotation
					End Site
					{
						OFFSET 0.000000 0.000000 0.000000
					}
				}
			}
		}
	}
	JOINT lowerback
	{
		OFFSET 0.004439 0.124404 -0.038385
		CHANNELS 3 Zrotation Yrotation Xrotation
		JOINT upperback
		{
			OFFSET 0.004488 0.137956 0.026820
			CHANNELS 3 Zrotation Yrotation Xrotation
			JOINT chest
			{
				OFFSET -0.002265 0.056032 0.002855
				CHANNELS 3 Zrotation Yrotation Xrotation
				JOINT lowerneck
				{
					OFFSET -0.013390 0.211636 -0.033468
					CHANNELS 3 Zrotation Yrotation Xrotation
					JOINT upperneck
					{
						OFFSET 0.010113 0.088937 0.050410
						CHANNELS 3 Zrotation Yrotation Xrotation
						End Site
						{
							OFFSET 0.000000 0.000000 0.000000
						}
					}
				}
				JOINT lclavicle
				{
					OFFSET 0.071702 0.114000 -0.018898
					CHANNELS 3 Zrotation Yrotation Xrotation
					JOINT lshoulder
					{
						OFFSET 0.122921 0.045205 -0.019046
						CHANNELS 3 Zrotation Yrotation Xrotation
						JOINT lelbow
						{
							OFFSET 0.255332 -0.015649 -0.022946
							CHANNELS 3 Zrotation Yrotation Xrotation
							JOINT lwrist
							{
								OFFSET 0.265709 0.012698 -0.007375
								CHANNELS 3 Zrotation Yrotation Xrotation
								End Site
								{
									OFFSET 0.000000 0.000000 0.000000
								}
							}
						}
					}
				}
				JOINT rclavicle
				{
					OFFSET -0.082954 0.112472 -0.023707
					CHANNELS 3 Zrotation Yrotation Xrotation
					JOINT rshoulder
					{
						OFFSET -0.113228 0.046853 -0.008472
						CHANNELS 3 Zrotation Yrotation Xrotation
						JOINT relbow
						{
							OFFSET -0.260127 -0.014369 -0.031269
							CHANNELS 3 Zrotation Yrotation Xrotation
							JOINT rwrist
							{
								OFFSET -0.269108 0.006794 -0.006027
								CHANNELS 3 Zrotation Yrotation Xrotation
								End Site
								{
									OFFSET 0.000000 0.000000 0.000000
								}
							}
						}
					}
				}
			}
		}
	}
}
MOTION
Frames: 7
Frame Time: 0.033333
0.271198 0.220152 0.992520 87.587211 2.494968 109.040614 7.636110 9.619305 -27.902180 -5.150036 3.801060 9.706371 -2.556918 6.087639 0.633397 0.000000 -0.000000 0.000000 -4.977473 -2.953442 -29.535922 -1.391050 -4.707442 8.698086 8.191770 -2.768829 2.069651 0.000000 -0.000000 0.000000 -8.593062 4.558942 57.909568 -6.997687 -6.580851 -1.395935 3.978085 -2.406826 -4.247005 -10.567678 4.674274 -4.377907 16.006156 9.853763 -22.641225 -5.410093 -37.848547 -4.122676 -24.460726 -38.313080 -13.022776 14.436034 -23.596528 -47.207596 23.315591 9.610783 -42.446260 -7.174548 31.037120 -6.563325 66.666599 20.128305 23.319584 -55.477567 68.989259 -65.335415 -24.901593 -12.213586 -67.211500 
0.271175 0.220109 0.992608 87.719000 2.540089 109.085198 7.641979 9.607027 -28.006817 -5.101898 3.720377 9.748642 -2.519503 6.104692 0.585735 0.000000 -0.000000 0.000000 -4.890981 -3.022529 -29.423282 -1.363681 -4.719348 8.456756 8.169268 -2.853478 1.944911 0.000000 -0.000000 0.000000 -8.442014 4.418277 57.842641 -7.061293 -6.760974 -1.517854 3.867551 -2.478350 -4.202489 -10.574131 4.435848 -4.789513 16.071473 9.951168 -22.770366 -5.391160 -37.981789 -4.045196 -24.322132 -38.253410 -13.269581 14.384553 -23.266798 -47.120633 23.432362 9.532225 -42.289677 -7.686428 31.082247 -6.835908 67.010344 20.048101 23.311123 -54.402880 69.006364 -64.240305 -24.793712 -11.868635 -67.624141 
0.270975 0.220354 0.992752 87.770187 2.488785 109.133146 7.549942 9.516067 -28.052053 -5.049188 3.725184 9.684347 -2.520651 6.164396 0.577371 0.000000 -0.000000 0.000000 -4.903416 -3.138763 -29.427149 -1.351001 -4.647437 8.369482 8.186970 -2.876977 1.905248 0.000000 -0.000000 0.000000 -8.268016 4.278511 57.736951 -7.010053 -6.915920 -1.493093 3.776805 -2.537865 -4.136288 -10.541649 4.306570 -5.388153 15.975928 9.849520 -22.881827 -5.389988 -37.926977 -4.033976 -23.939516 -38.027606 -13.431127 14.407959 -23.480682 -47.001358 23.555868 9.161677 -41.983575 -7.913485 31.100554 -7.075839 67.311368 20.177751 23.340230 -52.957059 68.868636 -62.918018 -24.304309 -11.149151 -67.718932 
0.270488 0.220947 0.993250 87.872083 2.363406 109.151194 7.327988 9.441549 -28.151836 -4.967652 3.715846 9.682117 -2.559069 6.178595 0.566465 0.000000 -0.000000 0.000000 -5.057320 -3.257984 -29.490913 -1.311396 -4.677160 8.439526 8.161838 -2.871727 1.862087 0.000000 -0.000000 0.000000 -8.010625 4.101251 57.746852 -6.815221 -6.961980 -1.615588 3.759049 -2.524839 -4.025758 -10.527434 4.170331 -6.170357 15.738448 9.533673 -22.721112 -5.371976 -37.674942 -4.315709 -23.815051 -38.068093 -13.249659 14.568608 -23.609347 -46.823170 23.691283 8.925689 -41.745754 -7.601537 31.084688 -7.185758 67.172273 20.427075 23.307983 -50.820817 68.640034 -61.081285 -23.410495 -10.193661 -68.171844 
0.270207 0.220931 0.993600 88.017317 2.352470 109.129403 7.329698 9.454939 -28.179432 -4.985407 3.663560 9.666468 -2.667245 6.101014 0.632739 0.000000 -0.000000 0.000000 -5.075916 -3.214607 -29.461119 -1.358929 -4.869847 8.468444 8.158100 -2.858790 1.851230 0.000000 -0.000000 0.000000 -7.435269 3.913174 57.738853 -6.547582 -6.846915 -1.624865 3.792917 -2.569060 -4.153911 -10.633815 4.176681 -6.712663 15.403948 9.058151 -22.701164 -5.417765 -37.354173 -4.629017 -23.720025 -38.093956 -13.054402 14.991664 -23.948179 -46.542462 23.758828 8.451161 -41.636892 -7.025151 31.363899 -6.970766 66.761275 21.045766 23.179030 -48.404150 68.183369 -58.996920 -23.094422 -9.358159 -68.625097 
0.270005 0.220979 0.993726 88.055319 2.197399 109.029946 7.196666 9.391273 -28.054932 -5.001888 3.717075 9.582860 -2.758736 6.080824 0.663500 0.000000 -0.000000 0.000000 -5.224257 -3.254679 -29.356844 -1.403882 -4.972092 8.477934 8.172518 -2.828288 1.849994 0.000000 -0.000000 0.000000 -6.917958 3.751136 57.523678 -6.270123 -6.652952 -1.481597 3.833742 -2.400291 -4.210612 -10.711802 4.246972 -7.573731 14.938767 8.589504 -22.532571 -5.293513 -37.242860 -4.970280 -23.305340 -38.141557 -13.016301 15.588014 -24.359040 -46.675028 24.068536 7.964000 -41.253681 -6.252209 31.746591 -6.738348 66.272080 21.808016 23.027380 -46.823678 67.580354 -57.972740 -22.331020 -8.079698 -68.911723 
0.269340 0.221363 0.993923 88.120009 1.938302 108.731298 6.951384 9.193231 -27.791625 -4.923839 3.708728 9.542997 -2.885283 6.122086 0.683905 0.000000 -0.000000 0.000000 -5.517073 -3.309533 -29.128411 -1.452601 -5.038198 8.612602 8.119028 -2.843451 1.802642 0.000000 -0.000000 0.000000 -6.394846 3.616328 57.257116 -5.851731 -6.390089 -1.117749 3.865689 -1.909933 -4.238920 -10.625878 4.307248 -8.930311 14.346561 7.516221 -21.958748 -4.873170 -37.248924 -5.364733 -22.629685 -38.607425 -13.190956 16.254813 -24.607640 -47.010775 24.523643 7.571777 -41.209759 -5.083053 31.940561 -6.511687 65.534667 22.876077 22.774626 -45.681378 66.992823 -57.310598 -22.112655 -7.230498 -69.159135 
